<svg xmlns="http://www.w3.org/2000/svg" xmlns:xlink="http://www.w3.org/1999/xlink" style="width: 0; height: 0; visibility: hidden; position: absolute;" aria-hidden="true"><symbol  viewBox='0 0 235 27' id='brand'>
    <path d="M219.829 14.936h-10.311v-3.357h10.278zm2.687-10.842h-12.748L208.522.733h13.994zm0 21.658h-12.748l-1.246-3.36h13.994zm-26.875-8.875 6.131 8.875h-4.542l-5.991-8.248"></path><path d="m190.881 17.018 1.798 2.463 4.304-.666-1.827-2.636z"></path><path d="M191.266 17.48h-5.961v-3.657h6.199c3.044 0 5.253-1.5 5.253-4.669S194.591 4.4 191.253 4.4h-5.948V.733h6.173c5.873 0 9.589 3.168 9.589 8.379 0 3.88-2.085 6.506-5.295 7.713a11.2 11.2 0 0 1-4.506.653M76.807 14.075c0 7.422-4.294 12.258-11.466 12.258-7.755 0-12.467-5.837-12.467-13.051 0-7.296 4.894-13.09 12.595-13.09 6.199 0 8.92 3.207 8.92 3.207L71.971 6.57s-2.333-2.467-6.502-2.467c-5.048 0-8.34 4.004-8.34 9.172s3.21 9.1 8.212 9.1c4.379 0 7.09-2.917 7.09-7.13v-.652zm75.376 9.197s-2.404 3.06-8.157 3.06c-7.671 0-12.633-5.836-12.633-13.05.006-7.296 4.959-13.094 12.63-13.094 5.756 0 8.425 3.126 8.425 3.126l-2.379 3.21a8.42 8.42 0 0 0-5.945-2.42c-4.963 0-8.425 4.003-8.425 9.171s3.446 9.1 8.425 9.1A8.48 8.48 0 0 0 150.085 20zM226.161 4.43c.364.273.805.424 1.26.43.6 0 .861-.25.861-.613 0-.362-.209-.512-1.008-.757-.995-.297-1.478-.63-1.478-1.328 0-.763.581-1.27 1.631-1.27 1.106 0 1.55.454 1.55.454l-.398.6a1.84 1.84 0 0 0-1.152-.371c-.502 0-.822.202-.822.558 0 .303.238.453.979.675 1.077.304 1.507.695 1.507 1.387 0 .753-.541 1.347-1.654 1.347a2.42 2.42 0 0 1-1.684-.554zm7.29-2.082-1.283 1.677h-.274l-1.275-1.654v3.077h-.731V1h.561l1.579 2.076L233.617 1h.561v4.448h-.727zm-75.006 22.468-.019.003-.363.933h.017zm15.603.936h.02l-.604-1.475zM11.94 12.221l2.54 3.642 5.514-7.417V.733z"></path><path d="M11.942 12.221 3.889.733v7.713l5.514 7.417 1.374 1.85h2.326l1.377-1.85z"></path><path d="M0 .733v25.02h3.89V.732zm19.994 0v25.019h3.89V.732zM3.89.733 6.035 3.8v7.537L3.89 8.447zm16.104 0L17.844 3.8v7.537l2.15-2.89zM11.94 12.221l1.355-1.931 2.724 3.504-1.54 2.069zm60.347 1.945s.382 1.03-.052 2.956h4.274c.22-.97.32-1.962.297-2.956zM81.061.733v25.02h4.127V.732zm4.128 0v7.256l13.338 17.763v-7.344zm13.341 0V18.41l-.003-.003v7.344h4.134V.732z"></path><path d="M85.189.733v7.256l1.637 2.18V2.903zm46.358 10.353s2.639 6.411 5.018 6.411c0 0 1.452 3.495 4.774 4.425s6.457.349 8.731-1.925c0 0 .509 1.7-1.876 2.691-2.385.992-6.431 1.68-8.865.784-2.434-.898-6.112-5.423-6.735-7.006-.623-1.582-1.109-4.976-1.047-5.38"></path><path d="M150.069 19.997c-2.911 2.75-5.997 3.03-8.588 2.41-.196-.048-.391-.094-.597-.156l-.098-.026a15 15 0 0 1-1.98-.78l-.141-.068a14 14 0 0 1-.691-.369q-.158-.087-.301-.173c-3.771-2.284-5.517-5.928-6.127-9.75a19 19 0 0 0-.157 2.308c.052 7.015 4.676 12.59 11.975 12.94 6.199.297 9.067-3.21 9.067-3.21zm35.232-15.593V.733h-4.127v25.02h4.127V4.403m2.16-3.67h-2.156V4.42h2.156zm24.883 0h-2.156v3.36h2.156zm0 10.803h-2.156v3.36h2.156zm0 10.856h-2.156v3.36h2.156zm-24.883-8.582h-2.156v3.687h2.156zm-12.593 1.149-.252 1.589-.675-1.59zm-15.823 9.857-.023.003-.362.933h.016zm15.6.936h.023l-.604-1.475zm-7.309-17.648-1.018-2.575zm1.853-4.637L168.028.733z"></path><path d="M169.189 3.467 168.028.733l-1.71 4.796 1.018 2.575 6.402 16.173.603 1.475h4.317z"></path><path d="m174.075 14.959.907 2.183-3.925.381-1.015-2.564zm.791 0h-16.451l1.364-3.361h13.661z"></path><path d="m166.319 5.53 1.71-4.797h-3.795l-10.258 25.02h4.362zm-39.118 9.429-.252 1.589-.675-1.59zm-7.531-6.855-1.021-2.575zm1.854-4.637L120.362.733z"></path><path d="M121.523 3.467 120.362.733l-1.713 4.796 1.021 2.575 6.402 16.173.603 1.475h4.317z"></path><path d="m126.405 14.959.907 2.183-3.922.381-1.015-2.564zm.797 0H110.75l1.361-3.361h13.661z"></path><path d="m118.649 5.53 1.713-4.797h-3.798l-10.258 25.02h4.365zm-70.278 9.429-.251 1.589-.676-1.59zM40.84 8.104l-1.017-2.575zm1.853-4.637L41.53.733z"></path><path d="M42.694 3.467 41.532.733l-1.71 4.796 1.019 2.575 6.401 16.173.604 1.475h4.317z"></path><path fill-rule="evenodd" d="m41.533.733 1.161 2.734-1.853 4.637-1.018-2.575zm78.829 0 1.161 2.734-1.853 4.637-1.021-2.575zm47.666 0 1.161 2.734-1.853 4.637-1.018-2.575z" clip-rule="evenodd"></path><path d="m47.578 14.959.907 2.183-3.925.381-1.015-2.564zm.793 0H31.92l1.364-3.361h13.661z"></path><path d="m39.822 5.53 1.71-4.797h-3.795L27.48 25.753h4.362zM210.275.733h-4.124v25.02h4.124zM76.795 15.106h-10.17l-1.603-3.498h11.815s.007 3.152-.042 3.498M71.21 4.103s.5-1.68-1.852-2.659-5.642-1.18-8.043-.297c-2.402.885-6.735 4.895-7.351 6.441-.617 1.547-1.093 4.894-1.035 5.305 0 0 2.754-4.293 5.103-4.293 0-.004 2.294-6.754 13.179-4.497"></path><path d="M65.465.188c-7.717 0-12.595 5.795-12.595 13.09 1.194-3.223 2.715-5.36 4.28-6.763 4.001-3.59 8.315-2.408 8.315-2.408 4.17 0 6.502 2.46 6.502 2.46l2.418-3.168S71.69.188 65.465.188"></path>
  </symbol></svg>